<?xml version="1.0" encoding="UTF-8" standalone="no"?>
<!-- Created with Inkscape (http://www.inkscape.org/) -->

<svg width="512" height="512" viewBox="0 0 135.46666 135.46667" version="1.1" id="svg1"
    xml:space="preserve" xmlns="http://www.w3.org/2000/svg" xmlns:svg="http://www.w3.org/2000/svg">
    <defs id="defs1" />
    <g id="layer1">
        <path style="fill:#f4b836;fill-opacity:1;stroke-width:1.20188"
            d="m 21.319356,121.80776 c -2.539784,-0.43012 -4.871247,-1.61635 -6.84419,-3.48227 -2.93971,-2.78026 -4.299262,-5.89061 -4.299262,-9.83575 0,-3.94513 1.359552,-7.05549 4.299262,-9.835744 5.290198,-5.00325 13.462403,-4.88274 18.616873,0.27452 9.322883,9.327924 1.217947,25.079234 -11.772683,22.879244 z m 40.703605,0 c -2.539797,-0.43012 -4.871248,-1.61635 -6.844203,-3.48227 -2.939709,-2.78026 -4.299261,-5.89061 -4.299261,-9.83575 0,-3.94513 1.359552,-7.05549 4.299261,-9.835744 5.290198,-5.00325 13.462404,-4.88274 18.616874,0.27452 9.322895,9.327924 1.217947,25.079234 -11.772671,22.879244 z m 54.457139,0.031 c -4.11824,-0.59286 -8.20922,-3.64393 -9.99086,-7.45122 -5.44209,-11.62947 6.39194,-23.463514 18.02141,-18.021434 6.50221,3.04274 9.39581,11.114164 6.36095,17.743174 -2.53418,5.53539 -8.26221,8.61184 -14.3915,7.72948 z M -1.6666669e-7,94.974846 V 83.41938 A 1.959404,1.959404 135 0 1 1.9594038,81.459976 H 47.381539 92.152771 a 2.6102959,2.6102959 45 0 1 2.610296,2.610296 v 10.904574 11.511234 a 2.0036306,2.0036306 135 0 1 -2.003631,2.00363 h -3.084319 -3.571095 a 1.51686,1.51686 45 0 1 -1.51686,-1.51686 c 0,-2.13375 -1.109706,-5.90607 -2.453682,-8.341044 -1.591948,-2.88423 -5.671326,-6.85894 -8.418422,-8.202443 -8.156773,-3.989165 -16.79363,-2.209568 -23.512687,3.526853 -1.728261,1.47551 -3.676568,5.82057 -4.802398,8.200404 -0.218866,0.46265 -0.589544,1.20556 -0.819251,1.66348 l -0.01604,0.032 a 0.54930294,0.54930294 176.00695 0 1 -0.943003,0.0658 C 43.321564,103.4833 41.667768,99.451248 38.668295,95.801329 38.506861,95.604887 38.340021,95.410263 38.167513,95.218231 37.818462,94.829675 37.214333,94.233122 36.83048,93.876063 32.756063,90.086054 28.127803,87.914837 22.566124,88.221297 12.68611,88.765724 4.9427108,95.933856 3.4881018,105.88202 l -0.2439545,1.66841 a 1.0981649,1.0981649 139.15941 0 1 -1.0866104,0.93928 H 1.5534028 0.95452196 A 0.95452212,0.95452212 45 0 1 -1.6666669e-7,107.53519 Z M 101.759,61.883893 v -33.07032 a 1.7310537,1.7310537 135 0 1 1.73105,-1.731054 h 8.38689 8.45574 a 2.4519809,2.4519809 34.13351 0 1 2.27769,1.544058 l 1.98646,4.983389 c 0.92107,2.273502 1.82734,4.553409 2.33588,5.886916 0.24561,0.644038 -0.13326,1.275148 -0.81768,1.285011 -1.53827,0.02217 -4.44138,-0.02552 -8.29719,-0.02552 h -8.02942 a 1.3514866,1.3514866 135 0 0 -1.35149,1.351487 v 12.163379 11.635254 a 1.8796106,1.8796106 45 0 0 1.87961,1.879611 h 11.63525 11.84358 a 1.6712985,1.6712985 45 0 1 1.6713,1.671299 V 82.235701 95.57248 a 0.46263463,0.46263463 157.42547 0 1 -0.78891,0.327982 l -1.67557,-1.66687 c -8.19071,-8.148228 -20.58802,-8.148228 -28.77872,0 l -1.38792,1.38072 A 0.63131067,0.63131067 22.574473 0 1 101.759,95.166749 Z M 36.575988,72.751029 c 3.674123,-8.197626 21.178993,-46.63851 25.000886,-54.882954 0.388673,-0.838431 1.026126,-1.756869 1.413374,-2.056261 l 15.201726,14.600852 a 105.89136,105.89136 44.734355 0 1 2.335231,2.313676 l 12.888083,13.171791 a 3.6914959,3.6914959 74.819002 0 1 0.943077,3.475656 l -2.583778,10.351988 c -1.6958,6.794312 -3.225194,12.889912 -3.398625,13.545781 a 1.9069381,1.9069381 149.16768 0 1 -1.997859,1.192491 H 67.624789 c -3.108069,0 -8.147246,4.97e-4 -11.255312,-0.0041 -8.631796,-0.01275 -15.70098,-0.05414 -18.791663,-0.108212 -0.92806,-0.01624 -1.381832,-0.752853 -1.001826,-1.600715 z M 14.739471,60.745474 C 8.5881734,56.299377 3.2626135,52.446026 1.0852154,50.866481 0.50585271,50.446195 0.21241942,49.55062 0.46007392,48.879877 1.4414424,46.221954 4.0206437,39.534095 7.0600108,31.784001 L 13.522381,15.30552 a 2.7488674,2.7488674 145.59387 0 1 2.548273,-1.745239 l 18.893731,-0.07449 c 11.810853,-0.04657 16.90502,-0.0618 19.069343,0.05045 0.884754,0.04589 1.235759,1.21019 0.842306,2.108131 -3.777093,8.620105 -21.824642,48.304739 -24.90378,54.749278 -0.236054,0.494053 -0.823164,0.648265 -1.274761,0.335363 -2.032375,-1.408191 -7.560836,-5.359758 -13.958022,-9.983573 z"
            id="path1" />
    </g>
</svg>
